<?xml version="1.0" encoding="utf-8"?>
<!-- Generator: Adobe Illustrator 23.0.3, SVG Export Plug-In . SVG Version: 6.00 Build 0)  -->
<svg version="1.1" baseProfile="tiny" id="icon" xmlns="http://www.w3.org/2000/svg" xmlns:xlink="http://www.w3.org/1999/xlink"
	 x="0px" y="0px" viewBox="0 0 160 67" xml:space="preserve">
<polygon fill="#A1144D" points="122.73,47.04 95.1,22.06 95.1,47.04 87.05,47.04 87.05,5.06 87.92,5.06 115.54,30.44 115.54,5.06 
	123.59,5.06 123.59,47.04 "/>
<polygon fill="#A1144D" points="135.89,39.81 135.89,29.93 151.43,29.93 151.43,22.63 135.89,22.63 135.89,12.12 153.08,12.12 
	153.08,5 151.75,5 134.56,5 127.85,5 127.85,47.04 134.56,47.04 154.72,47.04 154.72,39.81 "/>
<path fill="#A1144D" d="M41.3,17.09c-1.05-2.66-2.61-4.93-4.67-6.81C32.77,6.76,27.84,5,21.84,5H5.26v7.24h8.04h8.56
	c1.46,0,2.95,0.17,4.48,0.52c1.53,0.34,2.93,1.02,4.19,2.01c1.27,0.99,2.3,2.4,3.1,4.22c0.8,1.82,1.2,4.18,1.2,7.09
	c0,2.91-0.4,5.26-1.2,7.06c-0.81,1.8-1.83,3.21-3.08,4.22c-1.24,1.02-2.63,1.69-4.16,2.04c-1.53,0.34-3.05,0.52-4.54,0.52H13.3V39.9
	V23.78H5.26l0,0V39.9l0,0v7.14h16.58c2.98,0,5.72-0.44,8.23-1.32c2.51-0.88,4.69-2.18,6.57-3.91c2.07-1.87,3.62-4.14,4.67-6.8
	c1.05-2.66,1.58-5.66,1.58-8.99C42.88,22.73,42.36,19.75,41.3,17.09"/>
<path fill="#A1144D" d="M40.67,47.01L62.15,5.03h0.8l21.48,41.99H75.7l-6.31-12.62l-13.96-0.07L49.4,47.01H40.67z M59.09,27.99
	l6.87-0.02l-3.42-7.26L59.09,27.99z"/>
<rect x="5" y="53.23" fill="#381820" width="1.05" height="8.42"/>
<polygon fill="#381820" points="7.7,52.83 14.02,59.45 14.02,53.23 15.07,53.23 15.07,62 8.74,55.37 8.74,61.65 7.7,61.65 "/>
<polygon fill="#381820" points="17.78,54.19 17.78,56.56 20.7,56.56 20.7,57.52 17.78,57.52 17.78,61.65 16.73,61.65 16.73,53.23 
	20.8,53.23 20.8,54.19 "/>
<path fill="#381820" d="M30.44,57.44c0,2.5-1.98,4.39-4.41,4.39c-2.44,0-4.41-1.89-4.41-4.39c0-2.41,2-4.39,4.41-4.39
	C28.44,53.05,30.44,55.03,30.44,57.44 M29.39,57.44c0-1.85-1.39-3.41-3.36-3.41c-1.98,0-3.36,1.55-3.36,3.41
	c0,1.92,1.54,3.41,3.36,3.41C27.85,60.85,29.39,59.36,29.39,57.44"/>
<path fill="#381820" d="M36.87,61.65h-1.28l-2.48-3.56h-0.44v3.56h-1.05v-8.42h1.27c0.75,0,1.55,0.01,2.22,0.39
	c0.71,0.41,1.11,1.21,1.11,2.01c0,1.21-0.8,2.21-2.02,2.36L36.87,61.65z M32.68,57.22h0.33c1.07,0,2.24-0.2,2.24-1.54
	c0-1.32-1.25-1.51-2.29-1.51h-0.28V57.22z"/>
<polygon fill="#381820" points="39.3,56.09 39.27,56.09 38.29,61.65 37.21,61.65 38.93,52.87 41.82,59.51 44.72,52.87 46.44,61.65 
	45.35,61.65 44.37,56.09 44.35,56.09 41.82,61.83 "/>
<path fill="#381820" d="M48.74,59.54l-0.96,2.11h-1.13l4.02-8.78l4.02,8.78h-1.13l-0.96-2.11H48.74z M50.68,55.17l-1.5,3.41h2.99
	L50.68,55.17z"/>
<path fill="#381820" d="M61.71,54.84c-0.6-0.54-1.43-0.83-2.22-0.83c-1.89,0-3.33,1.57-3.33,3.44c0,1.84,1.43,3.42,3.31,3.42
	c0.83,0,1.62-0.31,2.25-0.87v1.24c-0.65,0.38-1.47,0.59-2.21,0.59c-2.4,0-4.39-1.91-4.39-4.35c0-2.49,2-4.44,4.48-4.44
	c0.74,0,1.49,0.18,2.12,0.57V54.84z"/>
<rect x="63.1" y="53.23" fill="#381820" width="1.05" height="8.42"/>
<path fill="#381820" d="M74.13,57.44c0,2.5-1.98,4.39-4.41,4.39c-2.43,0-4.41-1.89-4.41-4.39c0-2.41,2-4.39,4.41-4.39
	C72.13,53.05,74.13,55.03,74.13,57.44 M73.08,57.44c0-1.85-1.39-3.41-3.36-3.41c-1.98,0-3.36,1.55-3.36,3.41
	c0,1.92,1.54,3.41,3.36,3.41C71.54,60.85,73.08,59.36,73.08,57.44 M71.21,51.03l-1.83,1.66l-0.49-0.3l1.4-1.86L71.21,51.03z"/>
<polygon fill="#381820" points="75.21,52.83 81.54,59.45 81.54,53.23 82.59,53.23 82.59,62 76.27,55.37 76.27,61.65 75.21,61.65 "/>
<path fill="#381820" d="M88.71,61.65h-1.05v-8.42h1.21c2.59,0,3.4,0.89,3.4,2.43c0,1.78-1.35,2.46-2.95,2.46h-0.61V61.65z
	 M88.71,57.18h0.34c1.07,0,2.24-0.2,2.24-1.54c0-1.32-1.25-1.47-2.29-1.47h-0.28V57.18z"/>
<path fill="#381820" d="M93.66,59.54l-0.96,2.11h-1.13l4.02-8.78l4.02,8.78h-1.13l-0.96-2.11H93.66z M95.59,55.17l-1.5,3.41h3
	L95.59,55.17z"/>
<path fill="#381820" d="M105.73,61.65h-1.27l-2.48-3.56h-0.44v3.56h-1.05v-8.42h1.28c0.75,0,1.55,0.01,2.22,0.39
	c0.7,0.41,1.11,1.21,1.11,2.01c0,1.21-0.81,2.21-2.02,2.36L105.73,61.65z M101.54,57.22h0.33c1.07,0,2.24-0.2,2.24-1.54
	c0-1.32-1.25-1.51-2.29-1.51h-0.28V57.22z"/>
<path fill="#381820" d="M107.93,59.54l-0.96,2.11h-1.13l4.02-8.78l4.02,8.78h-1.13l-0.96-2.11H107.93z M109.86,55.17l-1.5,3.41h3
	L109.86,55.17z"/>
<polygon fill="#381820" points="120.42,61.65 119.38,61.65 119.38,54.19 117.37,54.19 117.37,53.23 122.42,53.23 122.42,54.19 
	120.42,54.19 "/>
<path fill="#381820" d="M131.66,57.44c0,2.5-1.98,4.39-4.41,4.39c-2.44,0-4.41-1.89-4.41-4.39c0-2.41,2-4.39,4.41-4.39
	C129.66,53.05,131.66,55.03,131.66,57.44 M130.6,57.44c0-1.85-1.38-3.41-3.36-3.41c-1.98,0-3.36,1.55-3.36,3.41
	c0,1.92,1.54,3.41,3.36,3.41C129.06,60.85,130.6,59.36,130.6,57.44"/>
<path fill="#381820" d="M132.76,53.23h1.74c2.58,0,4.73,1.36,4.73,4.17c0,2.87-2.1,4.25-4.76,4.25h-1.71V53.23z M133.81,60.69h0.37
	c2.15,0,4-0.8,4-3.25c0-2.46-1.85-3.25-4-3.25h-0.37V60.69z"/>
<path fill="#381820" d="M148.68,57.44c0,2.5-1.98,4.39-4.41,4.39c-2.44,0-4.41-1.89-4.41-4.39c0-2.41,2-4.39,4.41-4.39
	C146.68,53.05,148.68,55.03,148.68,57.44 M147.63,57.44c0-1.85-1.39-3.41-3.36-3.41c-1.98,0-3.37,1.55-3.37,3.41
	c0,1.92,1.54,3.41,3.37,3.41C146.09,60.85,147.63,59.36,147.63,57.44"/>
<path fill="#381820" d="M153.61,54.83c-0.31-0.52-0.71-0.79-1.35-0.79c-0.67,0-1.41,0.46-1.41,1.2c0,0.66,0.65,1.01,1.17,1.21
	l0.6,0.23c1.2,0.47,2.09,1.13,2.09,2.53c0,1.53-1.18,2.63-2.69,2.63c-1.36,0-2.42-1.01-2.6-2.36l1.06-0.22
	c-0.01,0.93,0.73,1.6,1.63,1.6c0.91,0,1.55-0.76,1.55-1.64c0-0.9-0.73-1.29-1.45-1.6l-0.58-0.24c-0.96-0.41-1.83-0.96-1.83-2.13
	c0-1.36,1.21-2.18,2.48-2.18c0.94,0,1.71,0.46,2.17,1.27L153.61,54.83z"/>
</svg>
