<?xml version="1.0" encoding="utf-8"?>
<!-- Generator: Adobe Illustrator 24.2.1, SVG Export Plug-In . SVG Version: 6.00 Build 0)  -->
<svg version="1.1" baseProfile="tiny" id="Capa_1" xmlns="http://www.w3.org/2000/svg" xmlns:xlink="http://www.w3.org/1999/xlink"
	 x="0px" y="0px" viewBox="0 0 50 50" overflow="visible" xml:space="preserve">
<path d="M31.35,21.15c0.74,0,1.45,0.08,2.15,0.21c0.18-0.92,0.28-1.82,0.28-2.69c0-7.51-6.1-13.6-13.63-13.6
	c-7.52,0-13.63,6.09-13.63,13.6c0,10.2,13.63,25.25,13.63,25.25s1.08-1.2,2.64-3.15c-1.94-2.09-3.13-4.87-3.13-7.94
	C19.67,26.38,24.9,21.15,31.35,21.15z M15.29,18.67c0-2.68,2.18-4.86,4.87-4.86s4.87,2.18,4.87,4.86s-2.18,4.86-4.87,4.86
	S15.29,21.35,15.29,18.67z M41.24,44.93l-4.52-4.52c-0.14-0.14-0.32-0.21-0.51-0.21s-0.34,0.08-0.38,0.1
	c-1.32,0.79-2.82,1.21-4.34,1.21l0,0c-2.22,0-4.33-0.88-5.94-2.49c-3.32-3.32-3.32-8.72,0-12.05c1.61-1.61,3.75-2.49,6.02-2.49
	s4.42,0.88,6.02,2.49c1.37,1.37,2.21,3.09,2.43,4.97c0.22,1.83-0.19,3.71-1.15,5.31c-0.14,0.23-0.16,0.6,0.1,0.87l4.52,4.53
	L41.24,44.93z M26.7,28.11c-1.3,1.3-2.02,3.04-2.02,4.88c0,1.85,0.72,3.58,2.02,4.88c1.3,1.3,3.04,2.02,4.88,2.02
	c1.85,0,3.58-0.72,4.88-2.02c1.3-1.3,2.02-3.04,2.02-4.88c0-1.85-0.72-3.58-2.02-4.88c-1.3-1.3-3.04-2.02-4.88-2.02
	C29.74,26.1,28.01,26.81,26.7,28.11z"/>
</svg>
