<?xml version="1.0" encoding="utf-8"?>
<!-- Generator: Adobe Illustrator 24.2.1, SVG Export Plug-In . SVG Version: 6.00 Build 0)  -->
<svg version="1.1" baseProfile="tiny" id="Capa_1" xmlns="http://www.w3.org/2000/svg" xmlns:xlink="http://www.w3.org/1999/xlink"
	 x="0px" y="0px" viewBox="0 0 50 50" overflow="visible" xml:space="preserve">
<path d="M44.62,14.86l-3.48,19.53c-0.15,0.84-0.97,1.52-1.82,1.52c0,0-0.48,0-0.64,0c-0.01,0-0.25,0-0.63,0
	c0.79-1.6,1.25-3.4,1.25-5.31c0-6.63-5.37-11.38-12-11.38s-12,4.76-12,11.38c0,1.91,0.46,3.7,1.25,5.31c-4.88,0-8.64,0-8.64,0
	c-0.17,0-0.33-0.03-0.47-0.08c-1.19-0.22-2.1-1.27-2.1-2.53V11.9c0-1.42,1.15-2.57,2.57-2.57h1.34c0.15,0,0.35-0.31,0.61-0.76
	c0.05-0.09,0.1-0.18,0.16-0.26c0.81-1.33,1.51-2,2.66-2h4.58c0.82,0,1.98,0.36,2.88,2.06c0.04,0.07,0.08,0.15,0.12,0.22
	c0.26,0.5,0.4,0.74,0.52,0.74h17.61c1.42,0,2.57,1.15,2.57,2.57v1.08c0,0-0.04,0.36,0.21,0.36c0.54,0,2.16,0,2.16,0
	C44.2,13.34,44.77,14.02,44.62,14.86z M38.93,12.93V11.9c0-0.28-0.24-0.51-0.51-0.51H20.8c-1.4,0-1.97-1.12-2.35-1.85
	c-0.03-0.07-0.07-0.14-0.11-0.2c-0.51-0.96-0.92-0.96-1.06-0.96h-4.36c-0.39,0-0.72,0.34-1.13,1.02c-0.05,0.08-0.09,0.16-0.14,0.24
	c-0.42,0.7-1.05,1.77-2.38,1.77H7.93c-0.28,0-0.52,0.24-0.52,0.51c0,0,0,12.8,0,17.07c0,0.9,0.13,0.42,0.13,0.42l2.58-14.52
	c0.15-0.84,0.97-1.52,1.82-1.52c0,0,20.08,0,26.78,0C38.96,13.34,38.93,12.93,38.93,12.93z M37.63,43.69l-4.83-4.83
	c-0.15-0.15-0.34-0.23-0.54-0.23c-0.21,0-0.36,0.08-0.4,0.11c-1.41,0.85-3.01,1.29-4.63,1.29l0,0c-2.38,0-4.63-0.95-6.35-2.66
	c-3.55-3.55-3.55-9.33,0-12.88c1.72-1.72,4-2.66,6.44-2.66s4.72,0.95,6.44,2.66c1.46,1.46,2.36,3.3,2.6,5.31
	c0.23,1.95-0.21,3.97-1.23,5.67c-0.15,0.25-0.18,0.65,0.11,0.93l4.84,4.84L37.63,43.69z M22.1,25.72c-1.39,1.39-2.16,3.25-2.16,5.22
	s0.77,3.83,2.16,5.22c1.39,1.39,3.25,2.16,5.22,2.16s3.83-0.77,5.22-2.16c1.39-1.39,2.16-3.25,2.16-5.22c0-1.97-0.77-3.83-2.16-5.22
	s-3.25-2.16-5.22-2.16C25.34,23.56,23.49,24.32,22.1,25.72z"/>
</svg>
