<?xml version="1.0" encoding="utf-8"?>
<!-- Generator: Adobe Illustrator 23.0.3, SVG Export Plug-In . SVG Version: 6.00 Build 0)  -->
<svg version="1.1" baseProfile="tiny" id="Capa_1" xmlns="http://www.w3.org/2000/svg" xmlns:xlink="http://www.w3.org/1999/xlink"
	 x="0px" y="0px" viewBox="0 0 140 50" xml:space="preserve">
<path fill="#B7B7B7" d="M6.17,5.37c0,0-0.66,0-0.66,0.9s0.66,0.9,0,1.81c-0.66,0.9,0,1.81,0,1.81s0.66,0.9,0.66,0
	s0.66-0.9,0.66-1.81c0-0.9,0-0.9,0-1.81S6.17,5.37,6.17,5.37z"/>
<polygon fill="#B7B7B7" points="8.14,6.03 8.14,6.68 8.79,7.99 10.11,7.34 10.11,6.03 8.79,5.37 "/>
<path fill-rule="evenodd" fill="#B7B7B7" d="M36.98,30.51c0.14-1.44-1.22-1.56-1.67-2.41c0.46-0.24,0.86-0.46,0.97-1.06
	c-0.83-1.16-1.63-2.69-1.25-4.37c0.19-0.83,0.99-1.21,0.73-1.96c-0.15,0-0.13-0.18-0.16-0.3c-1.14-0.36-2.57,0.33-3.77,0
	c-0.1-0.45-0.33,0.14-0.61,0c-0.86-0.45-1.06-1.5-1.96-1.91c-0.13-0.03-0.14,0.2-0.15,0.2c-0.05,0-0.1,0-0.15,0
	c-0.02,0-0.03-0.07-0.05-0.07c-0.08-0.04-0.12-0.03-0.25-0.03c-0.24-0.48-1.38,0.1-1.66,0.1c-0.2,0-0.4,0-0.6,0c-0.3,0-0.6,0-0.9,0
	c-0.2,0-0.4,0-0.6,0c-0.32,0-0.06-1.17-0.75-1.03c-0.54,0.04-0.41-1.59,0-1.57c0.23,1.07,0.07-1.56-0.75-1.84
	c-0.3-0.1,0.09-0.91-0.45-0.77c-0.12-0.03-0.15-0.16-0.3-0.16c0.13-0.53-0.39-0.16-0.45,0c-0.3-0.81,0.9-1.42,0.6-2.72
	c0.13,0.03,0.14-0.06,0.15-0.15c0.55-0.6,0.9-1.42,1.66-1.81c-0.01-0.21,0.07-0.33,0.15-0.45c0.59-0.85,3.27-0.77,2.11-2.41
	c-0.22,0.07,0.02,0.25,0,0.42C26.68,6,26.13,5.87,26.12,5.87c-0.15,0-0.3,0-0.45,0c-0.08,0-0.94,0.15-1.06,0.64
	c-0.31,0.09-0.04,0.7-0.6,0.55c-0.67,0.14-1.25,0.33-1.51,0.88c-0.41,0.57-1.63,0.51-2.41,0.29c-0.39,0.21-0.43,0.77-0.6,1.2
	c-0.53,0.03-0.3-0.71-0.9-0.61c-1.78,0.39-2.59,2.28-2.11,3.77c-1.67,0.08-1.73,1.79-3.17,2.11c0.27,0.31,0.54,1.15,0.3,1.51
	c-0.48-0.58-0.64-1.47-1.51-1.66c-0.41,0.59,0.59,0.86,0.45,1.66c-0.39,0.02-0.24,0.56-0.45,0.75c-0.48,0.13-0.47-0.24-0.75-0.3
	c-0.56,1.21,0.03,2.28,0.9,2.87c-0.54,0.77-0.28,1.07,0.15,1.81c0.13,0.49-0.49,0.21-0.6,0.45c1,1.27-0.48,3.6,0.75,4.37
	c-0.43,0.98-1.3,1.52-1.51,2.72c-1.27-0.05-2.73,0.59-1.82,1.81c-0.4,0-1.07-0.06-1.07,0.15c0,0.2,0,0.4,0,0.6
	c0.99,0.47,1.51,1.42,2.73,1.66c0.78,0.13,0.79,1.02,1.51,1.21c0.43-0.13,0.39,0.21,0.76,0.15c0.55,0.49,1.29-0.11,1.81-0.15
	c1.13,1.39,4.27,0.75,4.37,3.17c0.7,0.11,1.28,0.72,2.04,0.75c0.18,0.72,0.6,1.44,1.59,1.51c0,1.71-0.57,1.71-0.47,1.71
	c-0.05,0,0.48,0.18,0.47,0c0.13,0.12,0.33-0.18,0.59-0.19c0.83,0.29,1.61-0.07,1.95-0.67c0,0,0.08-0.19,0.04-0.18
	c0.49,0,1.01,1.04,1.47,0.05c0.05,0,0.1,0,0.15,0c0.15,0,0.3,0,0.45,0c0.17,0.99,0.99,0.66,1.46,1c0.04,0.24-0.2,0.35-0.2,0.54
	c0,0.05,0,0.1,0,0.15c0,0.38,0,0.97-0.99,1.51c0,0.1,0,0.2,0,0.3c0,0.04,0.12,0.07,0.17,0.1c0,0.02,0,0.03-0.01,0.05
	c0.03-0.01,0.05,0.11,0.07,0.1c0.55,0.29,1.29,0.2,1.44,1.19c0.05,0,0.1,0,0.15,0c0-0.99,0.52-0.56,0.41-1.02
	c0.05-0.85-0.27-1.74,0.72-2.38c0,0.15,0,0.3,0,0.45c0.99-2.31,0.99-5.81-0.99-7.09c0-0.45,0-0.9,0-1.36
	c0.99-0.26,1.42-0.33,2.23-0.15c0.51-1.22-0.25-1.68-1.24-1.51c0-0.35,0-0.7,0-1.06c0.99-0.21,4.66,0.49,5.42-0.9
	c1.2,0-0.48,2.31,1.5,2.11c0-0.1,0-0.2,0-0.3s0-0.2,0-0.3C37.76,31.45,37.03,31.06,36.98,30.51z M29.18,29.64
	c-0.18,0.63-0.44,1.24-0.77,1.79c-1.32,2.23-3.76,3.73-6.53,3.73c-2.94,0-5.49-1.68-6.75-4.13c-0.28-0.55-0.5-1.14-0.64-1.76
	c-0.13-0.55-0.2-1.12-0.2-1.7c0-4.19,3.41-7.59,7.59-7.59c1.41,0,2.73,0.39,3.86,1.06h2.87c0.32,0,0.58,0.26,0.58,0.58v3.89
	c0.19,0.66,0.29,1.35,0.29,2.07C29.47,28.29,29.37,28.98,29.18,29.64z"/>
<path fill="#A1144D" d="M28.48,22.01c0-0.09-0.07-0.17-0.17-0.17h-2.7c-0.09,0-0.17,0.07-0.17,0.17l0.01,10.66
	c1.71-0.99,2.87-2.81,2.95-4.9c0.03-0.01,0.05-0.03,0.08-0.04V22.01z"/>
<path fill="#540525" d="M24.6,27.24h-2.2c-0.07,0-0.13,0.07-0.13,0.16v6.67c0.03,0,0.05,0,0.08,0c0.87,0,1.69-0.27,2.39-0.75V27.4
	C24.74,27.31,24.68,27.24,24.6,27.24z"/>
<path fill="#C0134C" d="M21.55,27.39v-2.98c0-0.1-0.07-0.18-0.17-0.18h-2.7c-0.09,0-0.17,0.08-0.17,0.18v5.36v3.34
	c0.88,0.61,1.92,0.97,3.04,0.99V27.39z"/>
<path fill="#8C0E38" d="M17.67,29.79h-2.13c0.39,1.23,1.21,2.27,2.28,2.94v-2.79C17.82,29.85,17.76,29.79,17.67,29.79z"/>
<path fill="#A1144D" d="M51.12,23.47h6.04v7.9c-0.98,0.32-1.9,0.54-2.77,0.67s-1.75,0.19-2.65,0.19c-2.3,0-4.05-0.68-5.27-2.03
	c-1.21-1.35-1.82-3.29-1.82-5.82c0-2.46,0.7-4.38,2.11-5.75s3.36-2.06,5.85-2.06c1.56,0,3.07,0.31,4.52,0.94l-1.07,2.58
	c-1.11-0.56-2.27-0.83-3.47-0.83c-1.4,0-2.51,0.47-3.35,1.41s-1.26,2.2-1.26,3.78c0,1.65,0.34,2.91,1.02,3.79
	c0.68,0.87,1.66,1.31,2.95,1.31c0.67,0,1.36-0.07,2.05-0.21v-3.18h-2.89L51.12,23.47L51.12,23.47z"/>
<path fill="#A1144D" d="M64.2,32.23c-1.88,0-3.34-0.52-4.4-1.55c-1.06-1.03-1.58-2.5-1.58-4.4c0-1.95,0.49-3.46,1.46-4.53
	c0.98-1.07,2.32-1.6,4.05-1.6c1.65,0,2.93,0.47,3.84,1.41c0.92,0.94,1.38,2.23,1.38,3.89v1.54h-7.51c0.03,0.9,0.3,1.61,0.8,2.11
	s1.2,0.76,2.1,0.76c0.7,0,1.36-0.07,1.99-0.22s1.28-0.38,1.96-0.7v2.46c-0.56,0.28-1.15,0.48-1.78,0.62
	C65.89,32.17,65.11,32.23,64.2,32.23z M63.76,22.42c-0.67,0-1.2,0.21-1.58,0.64s-0.6,1.03-0.66,1.82h4.46
	c-0.01-0.78-0.22-1.39-0.61-1.82C64.96,22.63,64.43,22.42,63.76,22.42z"/>
<path fill="#A1144D" d="M80.52,26.18c0,1.9-0.5,3.38-1.5,4.45s-2.39,1.6-4.18,1.6c-1.12,0-2.1-0.24-2.96-0.73
	c-0.85-0.49-1.51-1.19-1.97-2.11s-0.69-1.99-0.69-3.21c0-1.9,0.5-3.38,1.49-4.44s2.39-1.58,4.19-1.58c1.12,0,2.1,0.24,2.96,0.73
	c0.85,0.49,1.51,1.18,1.97,2.09C80.29,23.89,80.52,24.96,80.52,26.18z M72.47,26.18c0,1.15,0.19,2.02,0.57,2.61s0.99,0.89,1.85,0.89
	c0.85,0,1.46-0.29,1.83-0.88c0.37-0.59,0.56-1.46,0.56-2.62c0-1.15-0.19-2.02-0.56-2.59s-0.99-0.86-1.84-0.86s-1.46,0.29-1.83,0.86
	C72.66,24.16,72.47,25.02,72.47,26.18z"/>
<path fill="#666666" d="M87.03,32.23c-0.74,0-1.42-0.14-2.04-0.41c-0.61-0.27-1.13-0.7-1.55-1.27h-0.13c0.08,0.67,0.13,1.3,0.13,1.9
	v4.7h-1.73V20.61h1.41l0.24,1.56h0.08c0.44-0.63,0.96-1.08,1.55-1.35c0.59-0.28,1.27-0.42,2.03-0.42c1.51,0,2.68,0.52,3.51,1.55
	c0.82,1.03,1.23,2.49,1.23,4.35c0,1.88-0.42,3.33-1.26,4.37C89.67,31.71,88.51,32.23,87.03,32.23z M86.78,21.87
	c-1.17,0-2.01,0.32-2.53,0.97s-0.79,1.67-0.8,3.08v0.39c0,1.6,0.27,2.75,0.8,3.44c0.53,0.69,1.39,1.04,2.57,1.04
	c0.99,0,1.76-0.4,2.32-1.2s0.84-1.9,0.84-3.3c0-1.42-0.28-2.52-0.84-3.28S87.79,21.87,86.78,21.87z"/>
<path fill="#666666" d="M103.04,26.31c0,1.86-0.47,3.31-1.41,4.36s-2.23,1.57-3.89,1.57c-1.02,0-1.93-0.24-2.72-0.72
	c-0.79-0.48-1.4-1.17-1.83-2.06s-0.65-1.94-0.65-3.15c0-1.86,0.47-3.31,1.4-4.35s2.22-1.56,3.88-1.56c1.6,0,2.87,0.53,3.81,1.59
	S103.04,24.49,103.04,26.31z M94.34,26.31c0,1.46,0.29,2.57,0.88,3.33c0.58,0.76,1.44,1.15,2.57,1.15s1.99-0.38,2.58-1.14
	c0.59-0.76,0.88-1.87,0.88-3.34c0-1.45-0.29-2.55-0.88-3.31c-0.59-0.75-1.45-1.13-2.6-1.13c-1.13,0-1.99,0.37-2.56,1.11
	C94.63,23.73,94.34,24.83,94.34,26.31z"/>
<path fill="#666666" d="M109.68,20.4c0.51,0,0.96,0.04,1.36,0.13l-0.24,1.6c-0.47-0.1-0.89-0.16-1.25-0.16
	c-0.92,0-1.71,0.38-2.37,1.13s-0.98,1.68-0.98,2.8v6.13h-1.73V20.61h1.43l0.2,2.11h0.08c0.42-0.74,0.93-1.32,1.53-1.72
	C108.31,20.6,108.96,20.4,109.68,20.4z"/>
<path fill="#666666" d="M115.27,30.81c0.31,0,0.6-0.02,0.89-0.07c0.28-0.05,0.51-0.09,0.68-0.14v1.32
	c-0.19,0.09-0.46,0.16-0.83,0.22c-0.36,0.06-0.69,0.09-0.98,0.09c-2.21,0-3.31-1.16-3.31-3.49v-6.79h-1.64v-0.83l1.64-0.72
	l0.73-2.44h1v2.65h3.31v1.34h-3.31v6.72c0,0.69,0.16,1.22,0.49,1.58C114.25,30.62,114.7,30.81,115.27,30.81z"/>
<path fill="#666666" d="M124.53,32.03l-0.34-1.63h-0.08c-0.57,0.72-1.14,1.2-1.7,1.45c-0.57,0.25-1.27,0.38-2.12,0.38
	c-1.13,0-2.02-0.29-2.66-0.87c-0.64-0.58-0.96-1.41-0.96-2.49c0-2.31,1.84-3.51,5.53-3.63l1.94-0.06v-0.71
	c0-0.9-0.19-1.56-0.58-1.98c-0.39-0.43-1-0.64-1.85-0.64c-0.95,0-2.03,0.29-3.23,0.88l-0.53-1.32c0.56-0.31,1.18-0.55,1.85-0.72
	s1.34-0.26,2.02-0.26c1.36,0,2.37,0.3,3.03,0.91s0.98,1.57,0.98,2.91v7.79h-1.3V32.03z M120.63,30.81c1.08,0,1.92-0.3,2.54-0.89
	c0.61-0.59,0.92-1.42,0.92-2.48v-1.03l-1.73,0.07c-1.38,0.05-2.37,0.26-2.97,0.64c-0.61,0.38-0.91,0.97-0.91,1.77
	c0,0.63,0.19,1.1,0.57,1.43C119.41,30.64,119.94,30.81,120.63,30.81z"/>
<path fill="#666666" d="M129.5,32.03h-1.73V15.82h1.73V32.03z"/>
</svg>
