<?xml version="1.0" encoding="utf-8"?>
<!-- Generator: Adobe Illustrator 24.1.2, SVG Export Plug-In . SVG Version: 6.00 Build 0)  -->
<svg version="1.1" baseProfile="tiny" id="Capa_1" xmlns="http://www.w3.org/2000/svg" xmlns:xlink="http://www.w3.org/1999/xlink"
	 x="0px" y="0px" viewBox="0 0 50 50" overflow="visible" xml:space="preserve">
<path d="M42.65,6.81H7.35c-0.61,0-1.1,0.49-1.1,1.1v22.1c0,0.54,0.43,0.97,0.97,0.97h35.56c0.54,0,0.97-0.43,0.97-0.97V7.91
	C43.75,7.31,43.26,6.81,42.65,6.81z M31.15,19.73l-9.66,5.79c-0.3,0.18-0.67,0.18-0.97,0.01s-0.49-0.49-0.49-0.84V13.11
	c0-0.35,0.19-0.67,0.49-0.84s0.67-0.17,0.97,0.01l9.66,5.79c0.29,0.17,0.47,0.49,0.47,0.83C31.62,19.24,31.44,19.55,31.15,19.73z
	 M27.25,38.42c0,0.52,0.07,1.02,0.19,1.5H8.59c-0.83,0-1.5-0.67-1.5-1.5s0.67-1.5,1.5-1.5h18.84C27.32,37.4,27.25,37.9,27.25,38.42z
	 M42.91,38.42c0,0.83-0.67,1.5-1.5,1.5H39.6c0.12-0.48,0.19-0.98,0.19-1.5s-0.07-1.02-0.19-1.5h1.81
	C42.24,36.92,42.91,37.59,42.91,38.42z M33.51,33.66c-2.63,0-4.76,2.14-4.76,4.76s2.14,4.76,4.76,4.76s4.76-2.14,4.76-4.76
	S36.14,33.66,33.51,33.66z M33.51,41.05c-1.45,0-2.63-1.18-2.63-2.63s1.18-2.63,2.63-2.63s2.63,1.18,2.63,2.63
	S34.96,41.05,33.51,41.05z"/>
</svg>
